# AST/ASF file generated using VICON BodyLanguage
# -----------------------------------------------
:version 1.10
:name VICON
:units
  mass 1.0
  length 0.45
  angle deg
:documentation
   .ast/.asf automatically generated from VICON data using
   VICON BodyBuilder and BodyLanguage model FoxedUp or BRILLIANT.MOD
:root
   order TX TY TZ RX RY RZ
   axis XYZ
   position 0 0 0  
   orientation 0 0 0 
:bonedata
  begin
     id 1 
     name lhipjoint
     direction 0.690799 -0.707083 0.151096 
     length 2.54797 
     axis 0 0 0  XYZ
  end
  begin
     id 2 
     name lfemur
     direction 0.34202 -0.939693 0  
     length 7.21646  
     axis 0 0 20  XYZ
    dof rx ry rz
    limits (-160.0 20.0)
           (-70.0 70.0)
           (-60.0 70.0)
  end
  begin
     id 3 
     name ltibia
     direction 0.34202 -0.939693 0   
     length 8.16759   
     axis 0 0 20   XYZ
    dof rx
    limits (-10.0 170.0)
  end
  begin
     id 4 
     name lfoot
     direction 0.0487203 -0.133858 0.989802   
     length 1.93375   
     axis -90 7.62852e-016 20   XYZ
    dof rx rz
    limits (-45.0 90.0)
           (-70.0 20.0)
  end
  begin
     id 5 
     name ltoes
     direction 1.53453e-011 -4.21783e-011 1   
     length 0.979747   
     axis -90 7.62852e-016 20   XYZ
    dof rx
    limits (-90.0 20.0)
  end
  begin
     id 6 
     name rhipjoint
     direction -0.694693 -0.703425 0.150315   
     length 2.56122  
     axis 0 0 0  XYZ 
  end
  begin
     id 7 
     name rfemur
     direction -0.34202 -0.939693 0   
     length 7.36786   
     axis 0 0 -20   XYZ
    dof rx ry rz
    limits (-160.0 20.0)
           (-70.0 70.0)
           (-70.0 60.0)
  end
  begin
     id 8 
     name rtibia
     direction -0.34202 -0.939693 0   
     length 8.07288   
     axis 0 0 -20   XYZ
    dof rx
    limits (-10.0 170.0)
 end
 begin
     id 9 
     name rfoot
     direction -0.0428397 -0.117701 0.992125   
     length 1.88295  
     axis -90 -7.62852e-016 -20   XYZ
    dof rx rz
    limits (-45.0 90.0)
           (-20.0 70.0)
  end
  begin
     id 10 
     name rtoes
     direction -1.53456e-011 -4.2187e-011 1   
     length 0.955578   
     axis -90 -7.62852e-016 -20   XYZ
    dof rx
    limits (-90.0 20.0)
  end
  begin
     id 11 
     name lowerback
     direction 0.0288145 0.999398 -0.0193241   
     length 1.92149   
     axis 0 0 0   XYZ
    dof rx ry rz
    limits (-20.0 45.0)
           (-30.0 30.0)
           (-30.0 30.0)
  end
  begin
     id 12 
     name upperback
     direction 0.0233784 0.998099 0.0570278   
     length 1.90435   
     axis 0 0 0   XYZ
    dof rx ry rz
    limits (-20.0 45.0)
           (-30.0 30.0)
           (-30.0 30.0)
  end
  begin
     id 13 
     name thorax
     direction 0.0096694 0.997833 0.0650817   
     length 1.9111   
     axis 0 0 0   XYZ
    dof rx ry rz
    limits (-20.0 45.0)
           (-30.0 30.0)
           (-30.0 30.0)
  end
  begin
     id 14 
     name lowerneck
     direction 0.00516803 0.999916 0.0118722   
     length 1.74664   
     axis 0 0 0   XYZ
    dof rx ry rz
    limits (-20.0 45.0)
           (-30.0 30.0)
           (-30.0 30.0)
  end
  begin
     id 15 
     name upperneck
     direction -0.0510851 0.996117 -0.071696   
     length 1.68498   
     axis 0 0 0   XYZ
    dof rx ry rz
    limits (-20.0 45.0)
           (-30.0 30.0)
           (-30.0 30.0)
  end
  begin
     id 16
     name head
     direction -0.019188 0.999436 -0.0275702  
     length 1.83483  
     axis 0 0 0   XYZ
    dof rx ry rz
    limits (-20.0 45.0)
           (-30.0 30.0)
           (-30.0 30.0)
  end
  begin
     id 17 
     name lclavicle
     direction 0.967006 0.248456 -0.0562957  
     length 3.39395  
     axis 0 0 0   XYZ
    dof ry rz
    limits (-20.0 10.0)
           (0.0 20.0)
  end
  begin
     id 18 
     name lhumerus
     direction 1 -4.48962e-011 -5.62711e-019   
     length 5.24318   
     axis 180 -30 -90   XYZ
    dof rx ry rz
    limits (-60.0 90.0)
           (-90.0 90.0)
           (-90.0 90.0)
  end
  begin
     id 19
     name lradius
     direction 1 -4.48966e-011 7.90625e-027   
     length 2.98999   
     axis 180 -30 -90   XYZ
    dof rx
    limits (-10.0 170.0)
  end
  begin
     id 20
     name lwrist
     direction 1 -4.48959e-011 1.61068e-026   
     length 1.49499   
     axis -9.31229e-015 90 90   XYZ
    dof ry
    limits (-180.0 0.0)
 end
  begin
     id 21 
     name lhand
     direction 1 -4.49017e-011 3.22136e-026   
     length 0.726745   
     axis -2.0555e-014 90 90   XYZ
    dof rx rz
    limits (-90.0 90.0)
           (-45.0 45.0)
  end
  begin
     id 22 
     name lfingers
     direction 1 -4.4898e-011 6.44272e-026   
     length 0.58592   
     axis -4.11101e-014 90 90   XYZ
    dof rx
    limits (0.0 90.0)
  end
  begin
     id 23
     name lthumb
     direction 0.707107 -6.34922e-011 0.707107   
     length 0.841268   
     axis -90 45 2.85299e-015   XYZ
    dof rx rz
    limits (-45.0 45.0)
           (-45.0 45.0)
  end
  begin
     id 24 
     name rclavicle
     direction -0.972232 0.230238 0.0419005   
     length 3.40416  
     axis 0 0 0   XYZ 
    dof ry rz
    limits (-10.0 20.0)
           (-20.0 0.0)
  end
  begin
     id 25 
     name rhumerus
     direction -1 -4.48976e-011 2.48487e-027  
     length 5.37045   
     axis 180 30 90   XYZ
    dof rx ry rz
    limits (-90.0 60.0)
           (-90.0 90.0)
           (-90.0 90.0)
  end
  begin
     id 26 
     name rradius
     direction -1 -4.48942e-011 7.87951e-027   
     length 2.92792   
     axis 180 30 90   XYZ
    dof rx
    limits (-10.0 170.0)
  end
  begin
     id 27 
     name rwrist
     direction -1 -4.48969e-011 1.61068e-026   
     length 1.46396   
     axis -9.31229e-015 -90 -90   XYZ
    dof ry
    limits (-180.0 0.0)
  end
  begin
     id 28
     name rhand
     direction -1 -4.49043e-011 3.22136e-026   
     length 0.784497   
     axis -2.0555e-014 -90 -90   XYZ
    dof rx rz
    limits (-90.0 90.0)
           (-45.0 45.0)
  end
  begin
     id 29
     name rfingers
     direction -1 -4.48823e-011 6.44272e-026   
     length 0.632482   
     axis -4.11101e-014 -90 -90   XYZ
    dof rx
    limits (0.0 90.0)
  end
  begin
     id 30
     name rthumb
     direction -0.707107 -6.34923e-011 0.707107   
     length 0.908121   
     axis -90 -45 -2.85299e-015   XYZ
    dof rx rz
    limits (-45.0 45.0)
           (-45.0 45.0)
  end
:hierarchy
  begin
    root lhipjoint rhipjoint lowerback
    lhipjoint lfemur
    lfemur ltibia
    ltibia lfoot
    lfoot ltoes
    rhipjoint rfemur
    rfemur rtibia
    rtibia rfoot
    rfoot rtoes
    lowerback upperback
    upperback thorax
    thorax lowerneck lclavicle rclavicle
    lowerneck upperneck
    upperneck head
    lclavicle lhumerus
    lhumerus lradius
    lradius lwrist
    lwrist lhand lthumb
    lhand lfingers
    rclavicle rhumerus
    rhumerus rradius
    rradius rwrist
    rwrist rhand rthumb
    rhand rfingers
  end

#!OML:ASF F:\VICON\USERDATA\INSTALL\rory3\rory3.ASF
:FULLY-SPECIFIED
:DEGREES
749
root 0.141068 18.235 0.545082 26.0615 -2.33868 3.91585
lowerback 9.86219 -1.29922 11.1822
upperback -2.65642 0.381519 8.13591
thorax -8.48566 -0.151599 2.43196
lowerneck 11.8146 -10.0821 1.35086
upperneck -15.2488 -11.9785 9.03631
head -6.08054 -6.65404 3.65272
rclavicle 3.18055e-014 -6.04305e-014
rhumerus -18.2349 19.0934 -91.7705
rradius 138.155
rwrist 45.5278
rhand 24.1649 -3.17617
rfingers 7.12502
rthumb 48.3933 -25.2034
lclavicle 3.18055e-014 -6.04305e-014
lhumerus -41.457 -1.07328 88.3767
lradius 133.125
lwrist -25.1711
lhand -9.24244 24.8779
lfingers 7.12502
lthumb 16.7131 54.1784
rfemur -36.9344 20.6473 4.13096
rtibia 19.7531
rfoot -20.2618 -30.0102
rtoes 25.857
lfemur -27.7743 -13.0196 -16.417
ltibia 9.0249
lfoot 0.664283 19.3831
ltoes -14.7313
750
root 0.138557 18.2339 0.542696 26.0905 -2.30704 3.81276
lowerback 9.84529 -1.27375 11.3475
upperback -2.65724 0.431965 8.11055
thorax -8.47538 -0.136275 2.30503
lowerneck 11.6921 -10.0897 1.44984
upperneck -15.3318 -11.9699 9.05405
head -6.09224 -6.65736 3.63991
rclavicle -3.18055e-015 -3.18055e-014
rhumerus -18.174 18.9158 -91.7618
rradius 138.184
rwrist 45.6154
rhand 24.3719 -2.85124
rfingers 7.12502
rthumb 48.5839 -24.787
lclavicle -3.18055e-015 -3.18055e-014
lhumerus -41.3731 -1.20636 88.3594
lradius 133.124
lwrist -25.1527
lhand -9.07193 24.8801
lfingers 7.12502
lthumb 16.8772 54.1668
rfemur -36.9521 20.6064 4.27491
rtibia 19.708
rfoot -19.923 -30.1295
rtoes 25.1436
lfemur -27.8986 -12.9871 -16.2823
ltibia 9.18507
lfoot 0.606184 19.3868
ltoes -14.9643
751
root 0.135958 18.2329 0.541394 26.123 -2.27971 3.72264
lowerback 9.80545 -1.30507 11.4296
upperback -2.69329 0.401946 8.15039
thorax -8.49507 -0.155094 2.31024
lowerneck 11.8065 -10.024 1.3179
upperneck -15.4664 -11.881 9.14052
head -6.14381 -6.61861 3.69309
rclavicle 3.18055e-015 9.22361e-014
rhumerus -18.1406 18.7146 -91.7193
rradius 138.221
rwrist 45.7315
rhand 25.0158 -1.9264
rfingers 7.12502
rthumb 49.1757 -23.5714
lclavicle 3.18055e-015 9.22361e-014
lhumerus -41.4229 -1.00704 88.2324
lradius 133.158
lwrist -25.2862
lhand -8.60872 24.598
lfingers 7.12502
lthumb 17.3231 53.846
rfemur -36.9768 20.6445 4.35544
rtibia 19.6512
rfoot -19.7646 -30.246
rtoes 24.7665
lfemur -28.0138 -12.9591 -16.1661
ltibia 9.3517
lfoot 0.489871 19.3956
ltoes -14.7861
752
root 0.133571 18.231 0.541656 26.1071 -2.27537 3.67496
lowerback 9.7897 -1.33281 11.4422
upperback -2.71356 0.369204 8.18252
thorax -8.51068 -0.171439 2.34505
lowerneck 11.9154 -9.96266 1.20809
upperneck -15.601 -11.7936 9.22905
head -6.19602 -6.58188 3.74359
rclavicle -2.06736e-014 6.04305e-014
rhumerus -18.2445 18.9394 -91.8077
rradius 138.213
rwrist 45.7521
rhand 24.8755 -2.08826
rfingers 7.12502
rthumb 49.0468 -23.7974
lclavicle -2.06736e-014 6.04305e-014
lhumerus -41.5354 -0.875744 88.1908
lradius 133.198
lwrist -25.3814
lhand -8.47015 24.4825
lfingers 7.12502
lthumb 17.4564 53.7187
rfemur -36.9205 20.7236 4.38683
rtibia 19.5699
rfoot -20.0955 -30.1467
rtoes 25.5743
lfemur -28.0998 -12.9369 -16.1176
ltibia 9.57068
lfoot 0.386976 19.4154
ltoes -14.6734
753
root 0.13138 18.2316 0.54189 26.0932 -2.29686 3.59724
lowerback 9.79156 -1.29704 11.5087
upperback -2.69893 0.422641 8.17204
thorax -8.49336 -0.148709 2.28736
lowerneck 11.812 -9.95424 1.32445
upperneck -15.6898 -11.7656 9.20175
head -6.21772 -6.57329 3.71457
rclavicle 2.22639e-014 -6.04305e-014
rhumerus -18.206 18.8542 -91.8065
rradius 138.068
rwrist 45.2203
rhand 24.0933 -1.9443
rfingers 7.12502
rthumb 48.3274 -24.0029
lclavicle 2.22639e-014 -6.04305e-014
lhumerus -41.5302 -0.971934 88.1969
lradius 133.207
lwrist -25.4134
lhand -8.59708 24.4214
lfingers 7.12502
lthumb 17.3343 53.6684
rfemur -36.8691 20.7595 4.4724
rtibia 19.499
rfoot -20.176 -30.0737
rtoes 25.7864
lfemur -28.1771 -12.8786 -16.0544
ltibia 9.74557
lfoot 0.394057 19.4268
ltoes -14.9765
754
root 0.129578 18.232 0.539845 26.0906 -2.32861 3.54519
lowerback 9.81049 -1.25768 11.5476
upperback -2.70951 0.483599 8.15745
thorax -8.51333 -0.122697 2.24076
lowerneck 11.8002 -9.94743 1.37481
upperneck -15.8114 -11.7388 9.22131
head -6.25796 -6.56736 3.71702
rclavicle 1.90833e-014 3.81667e-014
rhumerus -18.2452 18.9711 -91.8692
rradius 138.037
rwrist 45.2092
rhand 23.8291 -2.42623
rfingers 7.12502
rthumb 48.084 -24.5998
lclavicle 1.90833e-014 3.81667e-014
lhumerus -41.5176 -1.09168 88.2132
lradius 133.191
lwrist -25.4363
lhand -8.70965 24.4034
lfingers 7.12502
lthumb 17.2259 53.6599
rfemur -36.863 20.7327 4.55757
rtibia 19.4652
rfoot -19.8392 -30.1504
rtoes 25.1304
lfemur -28.233 -12.8225 -16.0177
ltibia 9.84672
lfoot 0.330116 19.4748
ltoes -15.0161
